# xmcd
# 
# Track frame offsets:
#     150
#     21190
#     45268
#     63887
#     88029
#     110619
#     126726
#     145110
#     165053
#     186372
#     210839
#     232445
#     249450
#     277114
# 
# Disc length: 3923
# 
# Revision: 0
# Processed by: cddbd v1.5.2PL0 Copyright (c) Steve Scherf et al.
# Submitted via: fre:ac v1.0.27
# 
DISCID=c50f510e
DTITLE=KANT KINO - We Are Kant Kino - You Are Too
DYEAR=2010
DGENRE=Industrial
TTITLE0=1. Red Rain (Pervesion For Profit Mix By Agregat)
TTITLE1=2. Soulfood (BariuzRMX)
TTITLE2=3. Red Rain (Poring Nails Remix By Implant)
TTITLE3=4. Stille! (Leæther Strip Remix)
TTITLE4=5. Soulfood (Elec This! Remix)
TTITLE5=6. Red Rain (Ionic Vision on speed)
TTITLE6=7. Forgotten Faces (Freakangelremix)
TTITLE7=8. Stille! (Industrial Heads Remix)
TTITLE8=9. Forgotten Faces (Anstalt Remix)
TTITLE9=10. Stille (amGod Remix)
TTITLE10=11. Red Rain (Essence Of Mind Remix)
TTITLE11=12. Soulfood (Substate Remix)
TTITLE12=13. Forgotten Faces (Remix By Trakktor)
TTITLE13=14. Control I'm Here
EXTD=
EXTT0=
EXTT1=
EXTT2=
EXTT3=
EXTT4=
EXTT5=
EXTT6=
EXTT7=
EXTT8=
EXTT9=
EXTT10=
EXTT11=
EXTT12=
EXTT13=
PLAYORDER=
